<?xml version="1.0" encoding="UTF-8" standalone="no"?>
<!-- Created with Inkscape (http://www.inkscape.org/) -->

<svg
   xmlns:dc="http://purl.org/dc/elements/1.1/"
   xmlns:cc="http://creativecommons.org/ns#"
   xmlns:rdf="http://www.w3.org/1999/02/22-rdf-syntax-ns#"
   xmlns:svg="http://www.w3.org/2000/svg"
   xmlns="http://www.w3.org/2000/svg"
   xmlns:xlink="http://www.w3.org/1999/xlink"
   xmlns:sodipodi="http://sodipodi.sourceforge.net/DTD/sodipodi-0.dtd"
   xmlns:inkscape="http://www.inkscape.org/namespaces/inkscape"
   width="24"
   height="24"
   id="svg2"
   inkscape:label="Pozadí"
   version="1.1"
   inkscape:version="0.48.4 r9939"
   sodipodi:docname="icon.svg"
   inkscape:export-filename="/home/mudrd8mz/public_html/moodle24/mod/subcourse/pix/icon.png"
   inkscape:export-xdpi="90"
   inkscape:export-ydpi="90">
  <sodipodi:namedview
     id="base"
     pagecolor="#ffffff"
     bordercolor="#666666"
     borderopacity="1.0"
     inkscape:pageopacity="0.0"
     inkscape:pageshadow="2"
     inkscape:zoom="32"
     inkscape:cx="10.466177"
     inkscape:cy="12.877506"
     inkscape:document-units="px"
     inkscape:current-layer="layer1"
     showgrid="false"
     inkscape:window-width="1680"
     inkscape:window-height="1004"
     inkscape:window-x="0"
     inkscape:window-y="25"
     inkscape:window-maximized="1" />
  <metadata
     id="metadata6">
    <rdf:RDF>
      <cc:Work
         rdf:about="">
        <dc:format>image/svg+xml</dc:format>
        <dc:type
           rdf:resource="http://purl.org/dc/dcmitype/StillImage" />
        <dc:title></dc:title>
      </cc:Work>
    </rdf:RDF>
  </metadata>
  <g
     inkscape:label="Vrstva 1"
     inkscape:groupmode="layer"
     id="layer1"
     transform="translate(0,-1028.3622)">
    <path
       style="fill:#000000;fill-opacity:1;stroke:none"
       d="M 9 0 C 4.0294373 7.1123663e-16 -2.2280496e-17 4.0294373 0 9 C 0 13.713401 3.6367814 17.581219 8.25 17.96875 C 8.0911419 17.339895 8 16.678206 8 16 C 8 11.581722 11.581722 8 16 8 C 16.678206 8 17.339895 8.0911419 17.96875 8.25 C 17.581219 3.6367814 13.713401 -2.0423898e-15 9 0 z "
       transform="translate(0,1028.3622)"
       id="use4129-3" />
    <path
       style="fill:#ffffff;fill-opacity:1;stroke:none"
       d="M 9 2 C 5.1340067 2 2 5.1340067 2 9 C 2 12.524819 4.6100309 15.41897 8 15.90625 C 8.0507 11.563618 11.563618 8.0507 15.90625 8 C 15.41897 4.6100309 12.524819 2 9 2 z "
       transform="translate(0,1028.3622)"
       id="use4129" />
    <path
       sodipodi:type="arc"
       style="fill:#000000;fill-opacity:1;fill-rule:evenodd;stroke:none"
       id="path4666"
       sodipodi:cx="16.285553"
       sodipodi:cy="16.288116"
       sodipodi:rx="5.3695922"
       sodipodi:ry="5.5021749"
       d="m 21.655145,16.288116 a 5.3695922,5.5021749 0 1 1 -10.739184,0 5.3695922,5.5021749 0 1 1 10.739184,0 z"
       transform="matrix(1.3036372,0,0,1.2722242,-4.2304526,1024.6401)" />
    <path
       transform="matrix(0.93118039,0,0,0.90873157,1.7952124,1030.6007)"
       d="m 21.655145,16.288116 a 5.3695922,5.5021749 0 1 1 -10.739184,0 5.3695922,5.5021749 0 1 1 10.739184,0 z"
       sodipodi:ry="5.5021749"
       sodipodi:rx="5.3695922"
       sodipodi:cy="16.288116"
       sodipodi:cx="16.285553"
       id="path4676"
       style="fill:#ffffff;fill-opacity:1;fill-rule:evenodd;stroke:none;stroke-width:1.63063419;stroke-miterlimit:4;stroke-dasharray:none"
       sodipodi:type="arc" />
    <path
       style="fill:#000000;fill-opacity:1;stroke:none"
       d="M 9 4.375 C 6.4429324 4.375 4.375 6.4429324 4.375 9 C 4.375 11.354528 6.1315233 13.269306 8.40625 13.5625 C 9.1923109 11.110427 11.110427 9.1923109 13.5625 8.40625 C 13.269306 6.1315233 11.354528 4.375 9 4.375 z "
       transform="translate(0,1028.3622)"
       id="path4736" />
  </g>
</svg>
